<?xml version="1.0" standalone="no"?><!DOCTYPE svg PUBLIC "-//W3C//DTD SVG 1.1//EN" "http://www.w3.org/Graphics/SVG/1.1/DTD/svg11.dtd"><svg t="1631613102521" class="icon" viewBox="0 0 1024 1024" version="1.1" xmlns="http://www.w3.org/2000/svg" p-id="9989" xmlns:xlink="http://www.w3.org/1999/xlink" width="200" height="200"><defs><style type="text/css"></style></defs><path d="M981.333333 554.666667a42.666667 42.666667 0 0 1 41.984 34.986666L1024 597.333333v298.666667a128 128 0 0 1-115.712 127.402667L896 1024h-768a128 128 0 0 1-127.402667-115.712L0 896V597.504a42.666667 42.666667 0 0 1 84.650667-7.68l0.682666 7.68V896a42.666667 42.666667 0 0 0 34.986667 41.984L128 938.666667h768a42.666667 42.666667 0 0 0 41.984-34.986667L938.666667 896V597.333333a42.666667 42.666667 0 0 1 42.666666-42.666666zM512 0h1.024c1.706667 0 3.498667 0.170667 5.290667 0.426667L512 0a42.837333 42.837333 0 0 1 24.234667 7.594667l1.536 1.109333c1.194667 0.853333 2.304 1.706667 3.413333 2.816l1.024 0.938667 256 256a42.666667 42.666667 0 0 1-54.442667 65.28l-5.973333-4.864L554.666667 145.578667V725.333333a42.666667 42.666667 0 0 1-84.650667 7.68L469.333333 725.333333V145.578667L286.208 328.874667a42.666667 42.666667 0 0 1-54.442667 4.864l-5.973333-4.864a42.666667 42.666667 0 0 1-4.864-54.442667l4.864-5.973333 256-256L482.986667 11.52a42.922667 42.922667 0 0 1 3.328-2.816l-4.437334 3.754667A42.837333 42.837333 0 0 1 512 0z" p-id="9990" fill="#ffffff"></path></svg>