<?xml version="1.0" standalone="no"?><!DOCTYPE svg PUBLIC "-//W3C//DTD SVG 1.1//EN" "http://www.w3.org/Graphics/SVG/1.1/DTD/svg11.dtd"><svg t="1631613137439" class="icon" viewBox="0 0 1109 1024" version="1.1" xmlns="http://www.w3.org/2000/svg" p-id="10868" xmlns:xlink="http://www.w3.org/1999/xlink" width="216.6015625" height="200"><defs><style type="text/css"></style></defs><path d="M554.837333 213.333333m0 42.666667l0 682.666667q0 42.666667-42.666666 42.666666l0 0q-42.666667 0-42.666667-42.666666l0-682.666667q0-42.666667 42.666667-42.666667l0 0q42.666667 0 42.666666 42.666667Z" fill="#ffffff" p-id="10869"></path><path d="M263.491109 629.647331m30.16989 30.169889l241.359114 241.359115q30.169889 30.169889 0 60.339778l0 0q-30.169889 30.169889-60.339778 0l-241.359115-241.359114q-30.169889-30.169889 0-60.339779l0 0q30.169889-30.169889 60.339779 0Z" fill="#ffffff" p-id="10870"></path><path d="M760.839689 629.651694m-30.169889 30.16989l-241.359115 241.359114q-30.169889 30.169889 0 60.339779l0 0q30.169889 30.169889 60.339779 0l241.359114-241.359115q30.169889-30.169889 0-60.339778l0 0q-30.169889-30.169889-60.339778 0Z" fill="#ffffff" p-id="10871"></path><path d="M939.52 301.397333a42.666667 42.666667 0 1 0 85.333333 0v-128a170.666667 170.666667 0 0 0-170.666666-170.666666h-683.52a170.666667 170.666667 0 0 0-170.666667 170.666666v128a42.666667 42.666667 0 1 0 85.333333 0v-128a85.333333 85.333333 0 0 1 85.333334-85.333333h683.52a85.333333 85.333333 0 0 1 85.333333 85.333333v128z" fill="#ffffff" p-id="10872"></path></svg>