<?xml version="1.0" standalone="no"?><!DOCTYPE svg PUBLIC "-//W3C//DTD SVG 1.1//EN" "http://www.w3.org/Graphics/SVG/1.1/DTD/svg11.dtd"><svg t="1629728979467" class="icon" viewBox="0 0 1024 1024" version="1.1" xmlns="http://www.w3.org/2000/svg" p-id="1916" xmlns:xlink="http://www.w3.org/1999/xlink" width="200" height="200"><defs><style type="text/css"></style></defs><path d="M511.488001 0.06592a401.087248 401.087248 0 0 0-402.303246 402.239246C109.184755 621.760754 412.800186 1024 511.488001 1024c98.687815 0 402.239246-402.239246 402.239246-621.694834 0-223.039582-179.199664-402.239246-402.239246-402.239246z m0 932.478251c-65.855877 0-329.151383-361.983321-329.151383-530.239005a327.743385 327.743385 0 0 1 329.151383-329.087383 327.743385 327.743385 0 0 1 329.087383 329.087383c0 168.255685-263.295506 530.303006-329.087383 530.303005z" p-id="1917" fill="#707070"></path><path d="M511.488001 256.00144a146.687725 146.687725 0 0 0-146.303726 146.303726 146.687725 146.687725 0 0 0 146.303726 146.303725 146.687725 146.687725 0 0 0 146.239726-146.303725 146.687725 146.687725 0 0 0-146.239726-146.239726z m0 219.519588a73.343862 73.343862 0 0 1-73.151863-73.215862c0-40.191925 32.895938-73.087863 73.151863-73.087863 40.191925 0 73.087863 32.895938 73.087863 73.087863 0 40.255925-32.895938 73.151863-73.087863 73.151863z" p-id="1918" fill="#707070"></path></svg>