<?xml version="1.0" standalone="no"?><!DOCTYPE svg PUBLIC "-//W3C//DTD SVG 1.1//EN" "http://www.w3.org/Graphics/SVG/1.1/DTD/svg11.dtd"><svg t="1630233043513" class="icon" viewBox="0 0 1024 1024" version="1.1" xmlns="http://www.w3.org/2000/svg" p-id="12068" xmlns:xlink="http://www.w3.org/1999/xlink" width="200" height="200"><defs><style type="text/css"></style></defs><path d="M960.009192 377.632881A453.818439 453.818439 0 0 0 512.007039 0.00037 459.72734 459.72734 0 0 0 64.004885 377.558788 197.531422 197.531422 0 0 0 0.007224 524.799718c0 76.797194 44.844671 166.39392 115.195791 166.393919 63.997661 0 63.997661-70.388166 63.997661-166.393919 0-89.596726 0-159.966369-44.770578-166.39392a388.338921 388.338921 0 0 1 755.135359-6.371982c-44.770578 12.799532-44.770578 76.797194-44.770579 166.319827 0 63.479012 0 108.027312 12.429069 139.998358 0.148186 0.296371 0.444557 0.51865 0.370464 0.796498-36.286952 171.876787-140.776332 243.209637-243.209637 268.882794a129.088192 129.088192 0 0 0-102.396258-44.844671c-63.997661 0-115.195791 32.045139-115.195791 70.388166s51.198129 70.388166 115.195791 70.388166 115.195791-31.971046 115.19579-70.388166a333.065688 333.065688 0 0 0 249.581618-275.180683c0 0.296371 0.444557 0.370464 0.666836 0.592742a50.586864 50.586864 0 0 0 31.378303 5.853332c70.388166 0 115.195791-89.670819 115.195791-166.468012a193.660072 193.660072 0 0 0-63.997662-140.776332z" fill="#d4237a" p-id="12069"></path></svg>