<?xml version="1.0" standalone="no"?><!DOCTYPE svg PUBLIC "-//W3C//DTD SVG 1.1//EN" "http://www.w3.org/Graphics/SVG/1.1/DTD/svg11.dtd"><svg t="1630928120185" class="icon" viewBox="0 0 1024 1024" version="1.1" xmlns="http://www.w3.org/2000/svg" p-id="3706" xmlns:xlink="http://www.w3.org/1999/xlink" width="200" height="200"><defs><style type="text/css"></style></defs><path d="M837.12 646.656c2.048-3.584 5.12-6.656 8.192-9.728l140.288-136.704c18.944-18.944 30.208-43.008 31.744-68.608 0.512-12.8-1.024-26.112-5.12-38.912-12.288-38.4-45.056-65.536-84.992-71.68l-194.048-28.16c-2.048-0.512-4.096-1.024-6.656-1.536-14.848-4.096-27.136-14.336-34.304-28.16l-86.528-175.616C588.288 51.2 552.448 28.672 512 28.672S435.712 51.2 417.792 87.04L331.264 263.168c-7.68 15.872-23.04 27.136-40.448 29.184l-194.048 28.16c-39.936 5.632-72.192 33.28-84.992 71.68-12.288 38.4-2.048 79.36 26.624 107.52l140.288 136.704c12.8 12.288 18.432 30.208 15.36 47.616l-33.28 193.024c-6.656 39.936 9.216 78.848 41.984 102.912 32.768 23.552 74.752 26.624 110.592 8.192l173.568-91.136c8.704-4.608 18.944-6.656 28.672-6.144h2.56c6.656 1.024 12.8 2.56 18.432 5.632l92.672 48.64 80.896 42.496c15.36 8.192 32.256 12.288 49.152 12.288 21.504 0 43.008-6.656 61.44-19.968 16.384-11.776 28.16-27.648 35.84-45.056 0.512-0.512 0.512-1.536 1.024-2.048 6.656-17.408 8.704-36.352 5.12-55.296l-15.872-92.672-17.408-100.352c-1.024-4.608-1.024-9.728-0.512-14.336 1.024-8.704 3.584-16.384 8.192-23.552z m-276.48 204.8c-5.632-3.072-11.776-5.632-17.92-7.168h-0.512c-2.048-0.512-3.584-1.024-5.632-1.536-1.024 0-1.536-0.512-2.56-0.512-1.024-0.512-2.56-0.512-3.584-1.024-1.024 0-2.048-0.512-3.072-0.512-1.024 0-2.048-0.512-3.072-0.512-1.024 0-2.048 0-3.072-0.512-1.024 0-2.048 0-3.584-0.512h-6.144V79.872c20.992 0 38.912 11.264 48.128 30.208l86.528 175.616c13.824 27.648 38.912 48.128 68.608 55.296 3.584 1.024 6.656 1.536 10.24 2.048l174.592 25.6 18.944 2.56c0.512 0 1.024 0.512 2.048 0.512 19.968 3.584 35.328 16.896 41.472 36.352 2.048 6.656 3.072 13.312 2.56 19.968-0.512 13.312-6.144 25.6-16.384 35.328l-140.288 136.704c-4.096 4.096-8.192 8.704-11.776 13.312-12.288 16.384-18.944 36.352-19.968 56.832-0.512 7.68 0 15.36 1.536 23.04l16.384 96.256 16.384 96.768c2.048 12.288 0 24.064-5.12 33.792-3.584 7.168-9.216 13.312-15.872 18.432-16.896 12.288-37.888 13.824-56.832 4.096l-103.936-54.784-68.096-36.352z" fill="#d4237a" p-id="3707"></path></svg>