<?xml version="1.0" standalone="no"?><!DOCTYPE svg PUBLIC "-//W3C//DTD SVG 1.1//EN" "http://www.w3.org/Graphics/SVG/1.1/DTD/svg11.dtd"><svg t="1631621109770" class="icon" viewBox="0 0 1024 1024" version="1.1" xmlns="http://www.w3.org/2000/svg" p-id="11735" xmlns:xlink="http://www.w3.org/1999/xlink" width="200" height="200"><defs><style type="text/css"></style></defs><path d="M512.3 387.7c-66.9 0-121.2 49.2-121.2 109.8 0 60.6 54.3 109.8 121.2 109.8s121.2-49.2 121.2-109.8c0-60.6-54.3-109.8-121.2-109.8z m0-164.7c-202 0-374.5 113.8-444.4 274.5C137.8 658.2 310.3 772 512.3 772c202.2 0 374.5-113.8 444.4-274.5C886.9 336.8 714.5 223 512.3 223z m0 457.5c-111.5 0-202-82-202-183s90.5-183 202-183 202 82 202 183-90.5 183-202 183z" p-id="11736" fill="#ffffff"></path></svg>