<?xml version="1.0" standalone="no"?><!DOCTYPE svg PUBLIC "-//W3C//DTD SVG 1.1//EN" "http://www.w3.org/Graphics/SVG/1.1/DTD/svg11.dtd"><svg t="1631625009687" class="icon" viewBox="0 0 1024 1024" version="1.1" xmlns="http://www.w3.org/2000/svg" p-id="13635" xmlns:xlink="http://www.w3.org/1999/xlink" width="200" height="200"><defs><style type="text/css"></style></defs><path d="M944.354032 908.256906 646.470621 610.373495c51.418067-59.858296 79.466889-135.283126 79.466889-215.023238 0-88.302115-34.387181-171.318854-96.825232-233.757928-62.440098-62.439074-145.456836-96.825232-233.758951-96.825232s-171.318854 34.387181-233.757928 96.825232c-62.439074 62.439074-96.825232 145.455813-96.825232 233.757928 0 88.303138 34.387181 171.318854 96.825232 233.757928 62.439074 62.440098 145.455813 96.826256 233.757928 96.826256 73.129554 0 142.620231-23.605627 199.812815-67.178005l299.343669 299.343669L944.354032 908.256906zM95.469352 395.349233c0-165.357072 134.526903-299.883975 299.883975-299.883975S695.238324 229.993185 695.238324 395.349233c0 165.357072-134.527926 299.884998-299.884998 299.884998S95.469352 560.707328 95.469352 395.349233z" p-id="13636" fill="#ffffff"></path></svg>