<?xml version="1.0" standalone="no"?><!DOCTYPE svg PUBLIC "-//W3C//DTD SVG 1.1//EN" "http://www.w3.org/Graphics/SVG/1.1/DTD/svg11.dtd"><svg t="1631612972616" class="icon" viewBox="0 0 1024 1024" version="1.1" xmlns="http://www.w3.org/2000/svg" p-id="3455" xmlns:xlink="http://www.w3.org/1999/xlink" width="200" height="200"><defs><style type="text/css"></style></defs><path d="M 1008.73 417.617 v 188.765 c 0 14.2094 -11.5146 25.7407 -25.7407 25.7407 h -348.924 v 348.924 c 0 14.2261 -11.5314 25.7407 -25.7407 25.7407 h -188.765 c -14.2094 0 -25.7407 -11.5146 -25.7407 -25.7407 V 632.123 h -348.924 c -14.2261 0 -25.7407 -11.5314 -25.7407 -25.7407 V 417.617 c 0 -14.2094 11.5146 -25.7407 25.7407 -25.7407 h 348.924 V 42.9521 c 0 -14.2261 11.5314 -25.7407 25.7407 -25.7407 h 188.765 c 14.2094 0 25.7407 11.5146 25.7407 25.7407 v 348.924 h 348.924 c 14.2261 0 25.7407 11.5314 25.7407 25.7407 Z" fill="#ffffff" p-id="3456"></path></svg>