<?xml version="1.0" standalone="no"?><!DOCTYPE svg PUBLIC "-//W3C//DTD SVG 1.1//EN" "http://www.w3.org/Graphics/SVG/1.1/DTD/svg11.dtd"><svg t="1630933109046" class="icon" viewBox="0 0 1024 1024" version="1.1" xmlns="http://www.w3.org/2000/svg" p-id="5206" xmlns:xlink="http://www.w3.org/1999/xlink" width="200" height="200"><defs><style type="text/css"></style></defs><path d="M237.056182 812.121155c-18.974225 0-34.42119-15.446965-34.42119-34.421191V226.960922c0-18.974225 15.446965-34.42119 34.42119-34.42119h550.739043c18.974225 0 34.42119 15.446965 34.42119 34.42119v550.739042c0 18.974225-15.446965 34.42119-34.42119 34.421191H237.056182z" fill="#75ACCA" p-id="5207"></path><path d="M787.795225 226.960922v550.739042H237.056182V226.960922h550.739043m0-68.842381H237.056182C198.986103 158.118541 168.213802 188.890842 168.213802 226.960922v550.739042c0 38.07008 30.772301 68.84238 68.84238 68.842381h550.739043c38.07008 0 68.84238-30.772301 68.84238-68.842381V226.960922c0-38.07008-30.772301-68.84238-68.84238-68.842381z" fill="#FFFFFF" p-id="5208"></path><path d="M237.056182 708.857584h550.739043v68.84238H237.056182z" fill="#FFFFFF" p-id="5209"></path><path d="M202.513363 708.857584H803.120561v-50.233044s-29.312745-51.206081-56.557786-83.316309c-20.190521-23.839411-50.476304-30.650671-76.869937-1.337926l-47.313933 45.489488-103.263571-131.238389c-38.434969-48.895118-101.317496-48.895118-139.874094 0L202.513363 708.857584z" fill="#4D5B71" p-id="5210"></path><path d="M650.110464 364.645682m-51.6926 0a51.6926 51.6926 0 1 0 103.3852 0 51.6926 51.6926 0 1 0-103.3852 0Z" fill="#EECA86" p-id="5211"></path><path d="M787.795225 226.960922v550.739042H237.056182V226.960922h550.739043m0-68.842381H237.056182C198.986103 158.118541 168.213802 188.890842 168.213802 226.960922v550.739042c0 38.07008 30.772301 68.84238 68.84238 68.842381h550.739043c38.07008 0 68.84238-30.772301 68.84238-68.842381V226.960922c0-38.07008-30.772301-68.84238-68.84238-68.842381z" fill="#FFFFFF" p-id="5212"></path></svg>