<?xml version="1.0" standalone="no"?><!DOCTYPE svg PUBLIC "-//W3C//DTD SVG 1.1//EN" "http://www.w3.org/Graphics/SVG/1.1/DTD/svg11.dtd"><svg t="1631111203671" class="icon" viewBox="0 0 1024 1024" version="1.1" xmlns="http://www.w3.org/2000/svg" p-id="2152" xmlns:xlink="http://www.w3.org/1999/xlink" width="200" height="200"><defs><style type="text/css"></style></defs><path d="M506.55232 815.14496c-33.71008 0-58.9824-25.27232-58.9824-58.9824s25.27232-58.9824 58.9824-58.9824 58.9824 25.27232 58.9824 58.9824-25.27232 58.9824-58.9824 58.9824zM467.23072 268.53376c0-25.92768 15.72864-43.2128 39.3216-43.2128s39.3216 17.28512 39.3216 43.2128v306.7904c0 25.92768-15.72864 43.2128-39.3216 43.2128s-39.3216-17.28512-39.3216-43.2128v-306.7904z" p-id="2153" fill="#e2884f"></path><path d="M506.55232 28.71296c271.48288 0 491.52 220.07808 491.52 491.52s-220.03712 491.52-491.52 491.52c-271.44192 0-491.52-220.07808-491.52-491.52s220.07808-491.52 491.52-491.52z m0 58.9824c-238.87872 0-432.5376 193.65888-432.5376 432.5376 0 238.87872 193.65888 432.5376 432.5376 432.5376 238.87872 0 432.5376-193.65888 432.5376-432.5376 0-238.87872-193.65888-432.5376-432.5376-432.5376z" p-id="2154" fill="#e2884f"></path></svg>