<?xml version="1.0" standalone="no"?><!DOCTYPE svg PUBLIC "-//W3C//DTD SVG 1.1//EN" "http://www.w3.org/Graphics/SVG/1.1/DTD/svg11.dtd"><svg t="1630928144725" class="icon" viewBox="0 0 1024 1024" version="1.1" xmlns="http://www.w3.org/2000/svg" p-id="3897" xmlns:xlink="http://www.w3.org/1999/xlink" width="200" height="200"><defs><style type="text/css"></style></defs><path d="M235.861333 955.050667a65.536 65.536 0 0 0 69.632 3.868444L512 844.060444l206.506667 114.744889a65.763556 65.763556 0 0 0 96.597333-68.551111l-40.277333-248.035555 173.624889-178.972445a66.161778 66.161778 0 0 0-37.148445-111.502222l-236.828444-36.295111-102.968889-220.615111a65.706667 65.706667 0 0 0-119.011556 0l-102.968889 220.615111-236.828444 36.352a66.218667 66.218667 0 0 0-37.091556 111.445333l173.511111 178.915556-40.277333 248.092444c-3.982222 25.031111 6.428444 50.062222 27.022222 64.739556z" fill="#d4237a" p-id="3898"></path></svg>