<?xml version="1.0" standalone="no"?><!DOCTYPE svg PUBLIC "-//W3C//DTD SVG 1.1//EN" "http://www.w3.org/Graphics/SVG/1.1/DTD/svg11.dtd"><svg t="1630036140980" class="icon" viewBox="0 0 1024 1024" version="1.1" xmlns="http://www.w3.org/2000/svg" p-id="3342" xmlns:xlink="http://www.w3.org/1999/xlink" width="200" height="200"><defs><style type="text/css"></style></defs><path d="M855.186286 512.365714a263.094857 263.094857 0 0 0-191.926857-253.001143 33.938286 33.938286 0 0 0-42.057143 33.938286 33.938286 33.938286 0 0 0 24.137143 33.938286 194.56 194.56 0 0 1 0 374.637714 33.938286 33.938286 0 0 0-24.137143 33.938286 33.938286 33.938286 0 0 0 42.057143 33.865143 263.094857 263.094857 0 0 0 191.926857-257.316572zM528.969143 0c11.190857 0 19.748571 7.826286 23.405714 22.381714a67.803429 67.803429 0 0 1 0 14.921143v949.76a65.828571 65.828571 0 0 1 0 12.507429c-2.998857 15.579429-11.190857 24.429714-23.04 24.429714a46.08 46.08 0 0 1-27.794286-12.580571l-14.628571-11.849143-111.177143-91.209143-160.402286-131.876572H83.456a67.803429 67.803429 0 0 1-67.803429-67.803428v-400.822857c0-37.449143 30.354286-67.803429 67.803429-67.803429h140.726857l156.306286-128.512L490.349714 22.016l10.825143-9.508571A46.08 46.08 0 0 1 528.969143 0z m204.8 71.533714V71.241143a488.96 488.96 0 0 1 0 878.445714 33.938286 33.938286 0 0 1-48.786286-30.793143c0-13.019429 7.533714-24.868571 19.309714-30.500571a421.156571 421.156571 0 0 0 0-756.150857 33.938286 33.938286 0 0 1-19.309714-30.500572 33.938286 33.938286 0 0 1 48.859429-30.208z" fill="#1296db" p-id="3343"></path></svg>