<?xml version="1.0" standalone="no"?><!DOCTYPE svg PUBLIC "-//W3C//DTD SVG 1.1//EN" "http://www.w3.org/Graphics/SVG/1.1/DTD/svg11.dtd"><svg t="1629086287390" class="icon" viewBox="0 0 1024 1024" version="1.1" xmlns="http://www.w3.org/2000/svg" p-id="2077" xmlns:xlink="http://www.w3.org/1999/xlink" width="200" height="200"><defs><style type="text/css"></style></defs><path d="M957.204245 924.536479L875.882771 326.040619a111.51042 111.51042 0 0 0-107.35944-94.340457H256.065969a111.699101 111.699101 0 0 0-107.548121 94.340457L66.44165 924.536479a85.849816 85.849816 0 0 0 86.793221 99.434842h716.987473A85.849816 85.849816 0 0 0 957.204245 924.536479z m-51.69857 42.641886a45.849462 45.849462 0 0 1-35.283331 15.094473h-716.987473a45.660781 45.660781 0 0 1-35.283331-15.094473 45.849462 45.849462 0 0 1-10.18877-37.736182l81.321474-598.118498a68.491172 68.491172 0 0 1 66.03832-57.547679h513.400767a68.491172 68.491172 0 0 1 66.03832 57.547679L915.505763 929.819544a45.849462 45.849462 0 0 1-9.811407 36.792779z" fill="#ffffff" p-id="2078"></path><path d="M559.087517 0h-94.340457a143.397495 143.397495 0 0 0-143.208814 143.208814v222.643478a20.943581 20.943581 0 1 0 41.887163 0V143.208814a101.510332 101.510332 0 0 1 101.321651-101.321651h94.340457a101.510332 101.510332 0 0 1 101.321651 101.321651v222.643478a20.943581 20.943581 0 1 0 41.887162 0V143.208814A143.397495 143.397495 0 0 0 559.087517 0z" fill="#ffffff" p-id="2079"></path><path d="M343.236551 312.644275a50.755166 50.755166 0 1 0 50.755166 50.755165 50.943847 50.943847 0 0 0-50.755166-50.755165z m20.377539 50.755165a20.377539 20.377539 0 1 1-20.377539-20.377538 20.377539 20.377539 0 0 1 20.377539 20.566219zM680.975387 317.92734a48.113633 48.113633 0 1 0 48.113633 48.113633 48.113633 48.113633 0 0 0-48.113633-48.113633z m18.868092 48.113633a18.868091 18.868091 0 1 1-18.868092-18.868091 18.868091 18.868091 0 0 1 19.245453 18.67941z" fill="#ffffff" p-id="2080"></path></svg>